<svg width="84" height="27" viewBox="0 0 84 27" fill="none" xmlns="http://www.w3.org/2000/svg">
<rect width="84" height="27" rx="4" fill="#FFCF97"/>
<path d="M10.0671 9.048C11.9231 9.048 13.1231 10.968 13.1231 14.024C13.1231 17.08 11.9231 19 10.0671 19C8.21112 19 7.01112 17.08 7.01112 14.024C7.01112 10.968 8.21112 9.048 10.0671 9.048ZM10.0671 10.152C8.88312 10.152 8.11512 11.672 8.11512 14.024C8.11512 16.376 8.88312 17.912 10.0671 17.912C11.2671 17.912 12.0351 16.376 12.0351 14.024C12.0351 11.672 11.2671 10.152 10.0671 10.152ZM17.8911 7.816H19.0431V22.216H17.8911V7.816ZM15.5071 13.56H18.3391V14.536H15.5071V13.56ZM14.7071 8.136H15.8271V21.48H14.7071V8.136ZM31.7139 7.816H32.8819V22.216H31.7139V7.816ZM22.0819 9.224H23.2499V18.152H22.0819V9.224ZM22.0819 17.448H23.2499C25.4579 17.448 27.7139 17.272 30.1619 16.76L30.3059 17.784C27.7939 18.296 25.5379 18.472 23.2499 18.472H22.0819V17.448ZM36.0006 9.512H41.4566V18.312H36.0006V9.512ZM40.3366 10.456H37.1046V17.368H40.3366V10.456ZM46.5286 7.816H47.6806V22.216H46.5286V7.816ZM40.8646 13.272H44.1926V14.264H40.8646V13.272ZM43.6966 8.136H44.8166V21.48H43.6966V8.136ZM60.3514 7.8H61.5354V22.232H60.3514V7.8ZM53.9674 8.936C56.0794 8.936 57.5994 10.888 57.5994 13.944C57.5994 16.984 56.0794 18.952 53.9674 18.952C51.8394 18.952 50.3194 16.984 50.3194 13.944C50.3194 10.888 51.8394 8.936 53.9674 8.936ZM53.9674 9.992C52.4954 9.992 51.4714 11.576 51.4714 13.944C51.4714 16.312 52.4954 17.896 53.9674 17.896C55.4394 17.896 56.4474 16.312 56.4474 13.944C56.4474 11.576 55.4394 9.992 53.9674 9.992ZM74.7341 7.8H75.9181V22.232H74.7341V7.8ZM71.6621 13.304H74.9421V14.28H71.6621V13.304ZM64.7661 17.752H65.8541C68.6221 17.752 70.3181 17.688 72.3341 17.304L72.4461 18.28C70.3821 18.648 68.6541 18.728 65.8541 18.728H64.7661V17.752ZM64.7661 9.144H71.4221V10.12H65.9341V18.088H64.7661V9.144ZM65.6141 13.192H70.7661V14.168H65.6141V13.192Z" fill="#A4822A"/>
</svg>
