<svg width="117" height="27" viewBox="0 0 117 27" fill="none" xmlns="http://www.w3.org/2000/svg">
<rect width="117" height="27" rx="4" fill="#FFABAB"/>
<path d="M13.0484 8.36C15.1924 8.36 16.7444 9.656 16.7444 11.544C16.7444 13.416 15.1924 14.712 13.0484 14.712C10.9044 14.712 9.33638 13.416 9.33638 11.544C9.33638 9.656 10.9044 8.36 13.0484 8.36ZM13.0484 9.336C11.5924 9.336 10.5044 10.264 10.5044 11.544C10.5044 12.824 11.5924 13.736 13.0484 13.736C14.5044 13.736 15.5924 12.824 15.5924 11.544C15.5924 10.264 14.5044 9.336 13.0484 9.336ZM19.5924 7.816H20.7764V15.224H19.5924V7.816ZM11.5124 15.944H20.7764V19.368H12.7124V21.608H11.5604V18.472H19.6084V16.904H11.5124V15.944ZM11.5604 21.064H21.2884V22.024H11.5604V21.064ZM33.9431 7.8H35.1271V22.232H33.9431V7.8ZM31.1271 13.4H34.2471V14.392H31.1271V13.4ZM23.8631 17.752H24.9511C27.5271 17.752 29.3351 17.688 31.4631 17.288L31.5591 18.28C29.3991 18.664 27.5751 18.76 24.9511 18.76H23.8631V17.752ZM23.8311 9.176H30.2471V14.152H25.0311V18.072H23.8631V13.176H29.0951V10.152H23.8311V9.176ZM43.4939 8.824H44.5179V9.944C44.5179 13.08 41.4779 15.464 38.7579 16.104L38.2299 15.112C40.6139 14.648 43.4939 12.472 43.4939 9.944V8.824ZM43.7019 8.824H44.7259V9.944C44.7259 12.472 47.6219 14.648 50.0059 15.112L49.4619 16.104C46.7739 15.464 43.7019 13.08 43.7019 9.944V8.824ZM37.6379 19.256H50.7099V20.248H37.6379V19.256ZM53.6526 15.64H63.5086V16.616H53.6526V15.64ZM51.9566 19.336H65.0286V20.328H51.9566V19.336ZM53.6526 9.08H63.3646V10.056H54.8526V15.944H53.6526V9.08ZM54.4686 12.296H63.0446V13.256H54.4686V12.296ZM66.7714 17.656H67.7154C69.4594 17.656 71.1074 17.592 73.1074 17.256L73.2194 18.232C71.1554 18.584 69.5234 18.648 67.7154 18.648H66.7714V17.656ZM66.7394 9.432H71.8754V14.344H67.9234V18.072H66.7714V13.384H70.7394V10.408H66.7394V9.432ZM77.3314 7.816H78.4834V22.216H77.3314V7.816ZM72.5794 13.032H74.9314V14.008H72.5794V13.032ZM74.4354 8.168H75.5394V21.448H74.4354V8.168ZM91.1701 7.8H92.3541V22.232H91.1701V7.8ZM84.7861 8.936C86.8981 8.936 88.4181 10.888 88.4181 13.944C88.4181 16.984 86.8981 18.952 84.7861 18.952C82.6581 18.952 81.1381 16.984 81.1381 13.944C81.1381 10.888 82.6581 8.936 84.7861 8.936ZM84.7861 9.992C83.3141 9.992 82.2901 11.576 82.2901 13.944C82.2901 16.312 83.3141 17.896 84.7861 17.896C86.2581 17.896 87.2661 16.312 87.2661 13.944C87.2661 11.576 86.2581 9.992 84.7861 9.992ZM105.553 7.8H106.737V22.232H105.553V7.8ZM102.481 13.304H105.761V14.28H102.481V13.304ZM95.5849 17.752H96.6729C99.4409 17.752 101.137 17.688 103.153 17.304L103.265 18.28C101.201 18.648 99.4729 18.728 96.6729 18.728H95.5849V17.752ZM95.5849 9.144H102.241V10.12H96.7529V18.088H95.5849V9.144ZM96.4329 13.192H101.585V14.168H96.4329V13.192Z" fill="#A81616"/>
</svg>
