<svg width="19" height="19" viewBox="0 0 19 19" fill="none" xmlns="http://www.w3.org/2000/svg">
<path d="M7.12508 10.2916C7.12508 10.9215 7.3753 11.5256 7.8207 11.971C8.2661 12.4164 8.87019 12.6666 9.50008 12.6666C10.13 12.6666 10.7341 12.4164 11.1795 11.971C11.6249 11.5256 11.8751 10.9215 11.8751 10.2916C11.8751 9.6617 11.6249 9.05761 11.1795 8.61221C10.7341 8.16681 10.13 7.91659 9.50008 7.91659C8.87019 7.91659 8.2661 8.16681 7.8207 8.61221C7.3753 9.05761 7.12508 9.6617 7.12508 10.2916ZM15.8334 15.5087V6.33325L11.0834 1.58325H4.75008C4.33016 1.58325 3.92743 1.75007 3.6305 2.047C3.33356 2.34393 3.16675 2.74666 3.16675 3.16659V15.8333C3.16675 16.2532 3.33356 16.6559 3.6305 16.9528C3.92743 17.2498 4.33016 17.4166 4.75008 17.4166H14.2501C14.6063 17.4166 14.923 17.2978 15.1922 17.0999L11.6851 13.5928C11.0517 14.0045 10.2917 14.2499 9.50008 14.2499C8.45027 14.2499 7.44345 13.8329 6.70112 13.0905C5.95879 12.3482 5.54175 11.3414 5.54175 10.2916C5.54175 9.24177 5.95879 8.23495 6.70112 7.49262C7.44345 6.75029 8.45027 6.33325 9.50008 6.33325C10.5499 6.33325 11.5567 6.75029 12.299 7.49262C13.0414 8.23495 13.4584 9.24177 13.4584 10.2916C13.4584 11.0833 13.213 11.8433 12.8013 12.4687L15.8334 15.5087Z" fill="black"/>
</svg>
