<svg width="17" height="17" viewBox="0 0 17 17" fill="none" xmlns="http://www.w3.org/2000/svg">
<path d="M13.9541 9.13758L9.91659 13.1751H8.28742V11.5459L12.3249 7.50842L13.9541 9.13758ZM16.3624 8.57092C16.3624 8.78342 16.1499 8.99591 15.9374 9.20842L14.1666 10.9792L13.5291 10.3417L15.3708 8.50008L14.9458 8.07508L14.4499 8.57092L12.8208 6.94175L14.3791 5.45425C14.5208 5.31258 14.8041 5.31258 15.0166 5.45425L16.0083 6.44592C16.1499 6.58758 16.1499 6.87091 16.0083 7.08342C15.8666 7.22508 15.7249 7.36675 15.7249 7.50842C15.7249 7.65008 15.8666 7.79175 16.0083 7.93341C16.2208 8.14592 16.4333 8.35842 16.3624 8.57092ZM2.12492 14.1667V2.83341H7.08325V6.37508H10.6249V7.43758L12.0416 6.02092V5.66675L7.79159 1.41675H2.12492C1.34575 1.41675 0.708252 2.05425 0.708252 2.83341V14.1667C0.708252 14.9459 1.34575 15.5834 2.12492 15.5834H10.6249C11.4041 15.5834 12.0416 14.9459 12.0416 14.1667H2.12492ZM7.79159 12.1126C7.64992 12.1126 7.50825 12.1834 7.43742 12.1834L7.08325 10.6251H6.02075L4.53325 11.8292L4.95825 9.91675H3.89575L3.18742 13.4584H4.24992L6.30409 11.6167L6.72909 13.2459H7.43742L7.79159 13.1751V12.1126Z" fill="#3DACC5"/>
</svg>
