<svg width="21" height="20" viewBox="0 0 21 20" fill="none" xmlns="http://www.w3.org/2000/svg">
<path d="M2.21053 0C0.983684 0 0 0.994737 0 2.21053V17.6842C0 18.9 0.983684 19.8947 2.21053 19.8947H10.8426C10.4447 19.2095 10.1684 18.4579 10.0358 17.6842H2.21053V2.21053H14.5563L17.6842 5.33842V10.0358C18.4579 10.1684 19.2095 10.4447 19.8947 10.8426V4.42105L15.4737 0H2.21053ZM3.31579 3.31579V7.73684H13.2632V3.31579H3.31579ZM9.94737 9.94737C8.11263 9.94737 6.63158 11.4284 6.63158 13.2632C6.63158 15.0979 8.11263 16.5789 9.94737 16.5789C9.94737 14.49 10.9311 12.5337 12.5889 11.2847C11.9921 10.5 11.0526 9.94737 9.94737 9.94737ZM15.4737 12.1579V15.4737H12.1579V17.6842H15.4737V21H17.6842V17.6842H21V15.4737H17.6842V12.1579H15.4737Z" fill="#0075FF"/>
</svg>
