<svg width="23" height="25" viewBox="0 0 23 25" fill="none" xmlns="http://www.w3.org/2000/svg">
<path d="M21.175 19.925C21.2 19.7375 21.2125 19.5625 21.2125 19.375C21.2125 19.1875 21.2 19 21.175 18.8125L22.3875 17.9C22.5 17.8125 22.5375 17.6625 22.4625 17.5375L21.3125 15.5875C21.25 15.4625 21.075 15.4125 20.95 15.4625L19.5125 16.025C19.2125 15.8125 18.9 15.625 18.5375 15.475L18.325 13.9875C18.3 13.85 18.175 13.75 18.0375 13.75H15.725C15.575 13.75 15.45 13.85 15.425 13.9875L15.2125 15.475C14.85 15.625 14.5375 15.8125 14.2375 16.025L12.8 15.4625C12.675 15.4125 12.5 15.4625 12.45 15.5875L11.2875 17.5375C11.2125 17.6625 11.25 17.8125 11.3625 17.9L12.575 18.8125C12.5625 19 12.5375 19.1875 12.5375 19.375C12.5375 19.5625 12.5625 19.7375 12.575 19.925L11.3625 20.85C11.25 20.9375 11.2125 21.0875 11.2875 21.2125L12.45 23.1625C12.5 23.2875 12.675 23.325 12.8 23.2875L14.2375 22.7125C14.5375 22.9375 14.85 23.125 15.2125 23.275L15.425 24.7625C15.45 24.9 15.575 25 15.725 25H18.0375C18.175 25 18.3 24.9 18.325 24.7625L18.5375 23.275C18.9 23.125 19.2125 22.9375 19.5125 22.7125L20.95 23.2875C21.075 23.325 21.25 23.2875 21.3125 23.1625L22.4625 21.2125C22.5375 21.0875 22.5 20.9375 22.3875 20.85L21.175 19.925ZM16.875 21.25C15.8375 21.25 15 20.4125 15 19.375C15 18.3375 15.8375 17.5 16.875 17.5C17.9125 17.5 18.75 18.3375 18.75 19.375C18.75 20.4125 17.9125 21.25 16.875 21.25ZM7.5 0C9.75 0.75 11.25 2.875 11.25 5.25C11.25 7.75 9.75 9.875 7.5 10.625V24.375C7.5 24.75 7.25 25 6.875 25H4.375C4 25 3.75 24.75 3.75 24.25V10.5C1.5 9.75 0 7.625 0 5.25C0 2.875 1.5 0.75 3.75 0V4.625H7.5V0Z" fill="white"/>
</svg>
