<svg width="63" height="26" viewBox="0 0 63 26" fill="none" xmlns="http://www.w3.org/2000/svg">
<rect width="63" height="26" rx="4" fill="#B0EEBD"/>
<path d="M14.7539 8.288H15.7299V9.504C15.7299 12.128 14.0659 14.288 11.7299 15.152L11.1059 14.224C13.2339 13.456 14.7539 11.6 14.7539 9.504V8.288ZM14.9619 8.288H15.9379V9.488C15.9379 11.44 17.3779 13.2 19.4579 13.92L18.8499 14.864C16.5459 14.032 14.9619 11.952 14.9619 9.488V8.288ZM11.4739 7.84H19.1699V8.832H11.4739V7.84ZM21.1059 6.816H22.2899V15.488H21.1059V6.816ZM21.9699 10.656H24.4499V11.664H21.9699V10.656ZM12.9779 16.272H22.2899V21.216H21.1059V17.264H12.9779V16.272ZM25.4726 13.696H38.4646V14.672H25.4726V13.696ZM26.8806 16.384H36.8166V21.216H35.6166V17.36H26.8806V16.384ZM27.0246 7.6H36.3206V8.576H27.0246V7.6ZM30.8966 10.736H32.0806V14H30.8966V10.736ZM35.6326 7.6H36.8006V8.704C36.8006 9.808 36.8006 11.04 36.4486 12.656L35.2646 12.528C35.6326 10.944 35.6326 9.776 35.6326 8.704V7.6ZM49.6154 6.8H50.8154V21.216H49.6154V6.8ZM50.4954 12.72H53.1674V13.712H50.4954V12.72ZM45.9674 8.368H47.1194C47.1194 12.416 45.1994 16.128 40.5594 18.448L39.9034 17.52C43.9194 15.504 45.9674 12.352 45.9674 8.544V8.368ZM40.5434 8.368H46.5754V9.36H40.5434V8.368Z" fill="#41BA80"/>
</svg>
