<svg width="21" height="21" viewBox="0 0 21 21" fill="none" xmlns="http://www.w3.org/2000/svg">
<path d="M7 11V3C7 1.9 7.9 1 9 1H18C19.1 1 20 1.9 20 3V9H16.57L15.29 7.26C15.23 7.17 15.11 7.17 15.05 7.26L13.06 10C13 10.06 12.88 10.07 12.82 10L11.39 8.25C11.33 8.18 11.22 8.18 11.16 8.25L9.05 10.91C8.97 11 9.04 11.15 9.16 11.15H15.5V13H9C7.89 13 7 12.11 7 11ZM4 20V19H2V20H0V0H2V1H4V0H6.39C5.54 0.74 5 1.8 5 3V11C5 13.21 6.79 15 9 15H13.7C12.67 15.83 12 17.08 12 18.5C12 19.03 12.11 19.53 12.28 20H4ZM2 5H4V3H2V5ZM2 9H4V7H2V9ZM2 13H4V11H2V13ZM4 17V15H2V17H4ZM21 11V13H19V18.5C19 19.88 17.88 21 16.5 21C15.12 21 14 19.88 14 18.5C14 17.12 15.12 16 16.5 16C16.86 16 17.19 16.07 17.5 16.21V11H21Z" fill="white"/>
</svg>
