<svg width="44" height="27" viewBox="0 0 44 27" fill="none" xmlns="http://www.w3.org/2000/svg">
<rect width="44" height="27" rx="4" fill="#ABC3FF"/>
<path d="M11.9132 9.288H12.8893V10.504C12.8893 13.128 11.2253 15.288 8.88925 16.152L8.26525 15.224C10.3932 14.456 11.9132 12.6 11.9132 10.504V9.288ZM12.1213 9.288H13.0972V10.488C13.0972 12.44 14.5373 14.2 16.6173 14.92L16.0093 15.864C13.7053 15.032 12.1213 12.952 12.1213 10.488V9.288ZM8.63325 8.84H16.3293V9.832H8.63325V8.84ZM18.2653 7.816H19.4493V16.488H18.2653V7.816ZM19.1293 11.656H21.6093V12.664H19.1293V11.656ZM10.1372 17.272H19.4493V22.216H18.2653V18.264H10.1372V17.272ZM32.456 7.8H33.656V22.216H32.456V7.8ZM33.336 13.72H36.008V14.712H33.336V13.72ZM28.808 9.368H29.96C29.96 13.416 28.04 17.128 23.4 19.448L22.744 18.52C26.76 16.504 28.808 13.352 28.808 9.544V9.368ZM23.384 9.368H29.416V10.36H23.384V9.368Z" fill="#4163BA"/>
</svg>
